<svg id="a0179547-7667-4cb3-b9ae-32eca47089ab" data-name="Layer 1" xmlns="http://www.w3.org/2000/svg" width="926.63239" height="785.99373" viewBox="0 0 926.63239 785.99373">
    <text x="45" y="27" font-size="49.5px" fill="rgb(150, 65, 255)">
        I am from an accounting background 
    </text>
    <text x="45" y="108" font-size="49.5px" fill="rgb(150, 65, 255)">
        and have experience in Financial  
    </text>
    <text x="45" y="189" font-size="49.5px" fill="rgb(150, 65, 255)">
        Accounting.  
    </text>

    <text x="45" y="297" font-size="49.5px" fill="rgb(150, 65, 255)">
        It was at this point I started to  
    </text>
    <text x="45" y="378" font-size="49.5px" fill="rgb(150, 65, 255)">
        develop a passion for entrepreneurial  
    </text>
    <text x="45" y="459" font-size="49.5px" fill="rgb(150, 65, 255)">
        topics. 
    </text>

    <text x="45" y="558" font-size="49.5px" fill="rgb(150, 65, 255)">
        My quest for entrepreneural knowledge
    </text>
    <text x="45" y="639" font-size="49.5px" fill="rgb(150, 65, 255)">
        sent me down a rabbit hole of research.  
    </text>
    <text x="45" y="720" font-size="49.5px" fill="rgb(150, 65, 255)">
        This was when I decided to pursue my   
    </text>
    <text x="45" y="810" font-size="49.5px" fill="rgb(150, 65, 255)">
        own venture...   
    </text>
<path d="M1030.88654,386.0594c-46.33985,59.26-133.78028,72.83-206.12989,52.19a335.51025,335.51025,0,0,1-68.1001-28.35c-12.54-6.81-24.77978-14.28-36.77-22.24-2.9502-1.95-5.89991-3.93-8.81983-5.95q-2.98534-2.04-5.95019-4.12994c-24.76026-17.42-48.54981-36.53-71.94-55.53-58.39013-47.43-118.37988-96.32-190.12011-118.95-14.77979-4.66-33.89991-6.84-43.04,5.68-7.92969,10.87-3.08985,26.26,3.62012,37.92005,24.89013,43.19,70.06982,70.46,115.29,91.43,45.21973,20.97,93.12012,37.96,132.42969,68.62,39.31006,30.66,69.32031,79.39,61.28028,128.58-6.93018,42.39-41.54,76.83-81.78028,91.84-40.23974,15-85.11963,12.91-126.94971,3.17-41.83007-9.75-81.54-26.76-121.91015-41.42-24.33985-8.85-56.15967-14.97-72.31006,5.28-13.63965,17.11-5.7998,44.1,10.81006,58.34s39.09033,19.01,60.54,23.29q99.90015,19.95,199.80029,39.89c20.42969,4.07,41.33984,8.33,59.13965,19.17,17.80029,10.83,32.16016,29.75,31.65039,50.58-.51025,20.53-15.54,38.67-33.96045,47.76-18.40967,9.08-39.66992,10.48-60.17969,9.5-76.85986-3.68-297.21-125.79-350.06006-141.4-33.96-10.02-71.08984-24.74-85.41015-57.12006-17.83008-40.31,11.51025-89.07995,51.56006-107.49,40.04-18.42,86.46-14.34,130.10009-8.13995,43.64014,6.19995,88.71973,14.09,131.2002,2.31,42.47949-11.78,81.3999-50.18006,77.21-94.06-3.65039-38.18005-38.04-66.95-74.23047-79.63-28.32959-9.93-58.46972-12.63-88.22949-17.1-8.26025-1.23-16.49023-2.61-24.64014-4.31a307.086,307.086,0,0,1-60.75-19.5,312.92391,312.92391,0,0,1-58.04-33.31,305.265,305.265,0,0,1-40.31982-35.01q-2.83521-2.93994-5.61035-6.01c-1.75977-1.96-3.5-3.96-5.19971-6-22.12012-26.43-38.46045-58.98-33.56006-92.51995,4.88965-33.45,30.96-61.3,62-74.68,17.93994-7.73,37.29-11.19,56.87989-11.69a233.79559,233.79559,0,0,1,42.77978,3.08c65.41016,10.46,125.3501,42.24005,181.96045,76.65,56.59961,34.41,111.75977,72.18,173.28955,96.71,61.53027,24.54,131.57031,34.93,193.99023,12.74,62.41993-22.18,113.69971-82.7,110.64991-148.87,41.3999,35.65,76.58008,80.46,92.16015,132.82C1070.79669,282.5594,1064.53644,343.01942,1030.88654,386.0594Z" transform="translate(-136.6838 -57.00314)" fill="#3f3d56" opacity="0.3"/>
</svg>